# Blender v2.91.2 OBJ File: 'Seaway.blend11'
# www.blender.org
v 3.945997 -0.869547 -2.403735
v 3.831357 3.010716 -2.417008
v -4.291114 3.021696 -0.594870
v 4.482348 -0.870762 -1.976880
v 1.368556 -0.870590 1.540737
v 4.547222 -0.870762 0.328537
v 2.199703 -0.870762 1.570382
v 0.129699 3.021696 1.849994
v 4.850791 -0.870762 -0.541662
v 4.599792 -0.870762 -1.134990
v 3.895981 -0.870762 1.125288
v -1.862240 3.021696 1.345256
v -3.644802 3.021696 -3.081699
v -0.080660 3.021696 2.294803
v 3.290077 3.021696 4.544674
v -0.102152 3.021696 -5.033468
v -0.535953 3.021696 -3.816899
v 4.653860 3.021696 -4.043723
v -2.803744 3.021696 4.488163
v -0.718708 3.021696 2.785083
v 4.053640 3.022169 -3.115207
v 3.416927 3.021696 5.559004
v -5.233195 3.021696 -0.871804
v -2.385981 3.021696 6.274113
v 0.651978 3.021696 4.089239
v -2.252945 3.021696 -2.621481
v 2.867263 3.021696 5.924323
v 2.076044 3.021696 -5.938354
v 2.003279 3.021696 3.843332
v 0.126958 -0.853987 -5.411230
v -2.083218 -0.853987 1.512026
v -5.791748 -0.853987 -2.331189
v -0.185239 -0.853987 6.547239
v -0.833936 3.021696 3.542176
v -2.867231 -0.853987 -0.514774
v -5.352660 -0.853987 -3.216911
v 2.935886 -0.853987 -5.774695
v -2.173522 -0.853987 -2.630903
v 2.914927 -0.853987 5.923431
v 0.598296 -0.853987 4.085945
v -2.219146 -0.853987 6.363351
v -5.236149 -0.853987 -0.877575
v 3.434246 -0.853987 5.518161
v 0.038423 -0.853987 2.155702
v -3.646317 -0.853987 -3.072411
v -1.935970 -0.853987 1.255033
v -4.074741 -0.853987 -0.624830
v 0.854556 3.021696 6.169437
v 0.986345 -0.853987 -6.004729
v -3.082331 -0.853987 2.426968
v 0.929580 -0.853987 6.164762
v -3.179289 3.021696 2.536821
v -0.846386 -0.853987 3.525232
v 1.931395 -0.853987 3.851177
v -0.950801 -0.853987 -3.109328
v 0.822317 -0.852681 1.580610
v 0.716162 3.021696 -5.903823
v -2.731395 -0.853987 5.528000
v 4.016890 -0.853644 -3.060089
v -0.699416 -0.853987 2.779027
v 4.614041 -0.853987 -4.172738
v -3.003878 -0.853987 3.768894
v -0.481346 -0.853987 -3.995102
v 3.224792 -0.853987 4.490190
v 3.063234 3.021696 -5.714365
v -5.299812 3.021696 -3.244206
v -0.321596 3.021696 6.549870
v -2.857979 3.021696 -0.495650
v -2.195341 3.021696 1.574108
v -5.790763 3.021696 -2.384952
v 3.871346 3.004921 1.131721
v 4.601308 3.004921 -1.166330
v 4.853669 3.004921 -0.538903
v 4.568627 3.004921 0.297802
v 2.090439 3.004921 1.590137
v 4.438941 3.004921 -2.027891
v 1.278753 3.009182 1.499665
v -0.986680 3.021696 -3.064473
vt 0.000000 0.000000
vt 0.000000 0.000000
vt 0.000000 0.000000
vt 0.000000 0.000000
vt 0.000000 0.000000
vt 0.000000 0.000000
vt 0.000000 0.000000
vt 0.000000 0.000000
vt 0.000000 0.000000
vt 0.000000 0.000000
vt 0.000000 0.000000
vt 0.000000 0.000000
vt 0.000000 0.000000
vt 0.000000 0.000000
vt 0.000000 0.000000
vt 0.000000 0.000000
vt 0.000000 0.000000
vt 0.000000 0.000000
vt 0.000000 0.000000
vt 0.000000 0.000000
vt 0.000000 0.000000
vt 0.000000 0.000000
vt 0.000000 0.000000
vt 0.000000 0.000000
vt 0.000000 0.000000
vt 0.000000 0.000000
vt 0.000000 0.000000
vt 0.000000 0.000000
vt 0.000000 0.000000
vt 0.000000 0.000000
vt 0.000000 0.000000
vt 0.000000 0.000000
vt 0.000000 0.000000
vt 0.000000 0.000000
vt 0.000000 0.000000
vt 0.000000 0.000000
vt 0.000000 0.000000
vt 0.000000 0.000000
vt 0.000000 0.000000
vt 0.000000 0.000000
vt 0.000000 0.000000
vt 0.000000 0.000000
vt 0.000000 0.000000
vt 0.000000 0.000000
vt 0.000000 0.000000
vt 0.000000 0.000000
vt 0.000000 0.000000
vt 0.000000 0.000000
vt 0.000000 0.000000
vt 0.000000 0.000000
vt 0.000000 0.000000
vt 0.000000 0.000000
vt 0.000000 0.000000
vt 0.000000 0.000000
vt 0.000000 0.000000
vt 0.000000 0.000000
vt 0.000000 0.000000
vt 0.000000 0.000000
vt 0.000000 0.000000
vt 0.000000 0.000000
vt 0.000000 0.000000
vt 0.000000 0.000000
vt 0.000000 0.000000
vt 0.000000 0.000000
vt 0.000000 0.000000
vt 0.000000 0.000000
vt 0.000000 0.000000
vt 0.000000 0.000000
vt 0.000000 0.000000
vt 0.000000 0.000000
vt 0.000000 0.000000
vt 0.000000 0.000000
vt 0.000000 0.000000
vt 0.000000 0.000000
vt 0.000000 0.000000
vt 0.000000 0.000000
vt 0.000000 0.000000
vt 0.000000 0.000000
vn -0.8522 -0.0247 0.5226
vn -0.9187 -0.0158 -0.3946
vn 0.9904 -0.0015 -0.1382
vn -0.8673 0.0281 -0.4969
vn -0.5682 -0.0182 -0.8227
vn -0.6753 -0.0077 -0.7375
vn -0.8850 -0.0002 0.4657
vn 0.2871 0.0082 -0.9579
vn -0.9880 0.0226 0.1530
vn 0.1172 -0.0159 -0.9930
vn -0.3644 0.0074 -0.9312
vn -0.9979 -0.0266 0.0583
vn 0.9442 -0.0026 0.3294
vn 0.5907 0.0496 0.8053
vn 0.6227 -0.0033 -0.7825
vn 0.0732 0.0123 0.9972
vn -0.8719 0.0039 -0.4897
vn -0.1763 0.0023 -0.9843
vn 0.1208 0.0012 0.9927
vn 0.9245 -0.0019 -0.3812
vn 0.9827 0.0086 -0.1852
vn 0.9466 -0.0009 0.3225
vn 0.6291 -0.0033 0.7773
vn 0.9773 0.0117 0.2118
vn -0.9419 0.0022 -0.3359
vn 0.4610 -0.0028 -0.8874
vn -0.9363 0.0027 0.3513
vn 0.3139 -0.0024 -0.9494
vn -0.6993 0.0028 -0.7148
vn 0.7706 0.0023 0.6373
vn 0.5848 0.0005 0.8112
vn -0.8796 0.0057 0.4758
vn 0.2515 0.0011 0.9679
vn -0.9728 0.0429 0.2276
vn 0.5394 0.0131 -0.8420
vn 0.2213 0.0079 -0.9752
vn -0.5663 -0.0032 -0.8242
vn 0.8625 -0.0133 0.5059
vn -0.1115 0.0067 0.9937
vn 0.9867 -0.0041 -0.1625
vn -0.8825 0.0012 -0.4703
vn 0.0910 -0.0053 -0.9958
vn 0.3159 0.0077 0.9487
vn -0.2442 -0.0112 0.9697
vn -0.9819 0.0156 0.1890
vn -0.3302 -0.0045 -0.9439
vn 0.2915 -0.0144 0.9565
vn 0.9851 0.0004 0.1718
vn -0.0790 -0.0084 0.9968
vn -0.0729 0.0009 0.9973
vn 0.9039 0.0124 0.4275
vn -0.0254 0.0243 -0.9994
vn 0.3536 -0.0006 -0.9354
vn 0.7075 0.0020 -0.7067
vn -0.7283 0.0237 -0.6848
vn 0.0010 1.0000 0.0007
s off
f 58/1/1 41/2/1 24/3/1
f 30/4/2 63/5/2 16/6/2
f 10/7/3 4/8/3 72/9/3
f 46/10/4 31/11/4 12/12/4
f 49/13/5 30/4/5 57/14/5
f 31/11/6 50/15/6 69/16/6
f 35/17/7 46/10/7 68/18/7
f 38/19/8 45/20/8 26/21/8
f 62/22/9 58/1/9 19/23/9
f 37/24/10 49/13/10 28/25/10
f 55/26/11 38/19/11 78/27/11
f 50/15/12 62/22/12 52/28/12
f 6/29/13 9/30/13 74/31/13
f 44/32/14 56/33/14 8/34/14
f 4/8/15 1/35/15 76/36/15
f 56/33/16 5/37/16 77/38/16
f 78/27/17 17/39/17 63/5/17 55/26/17
f 25/40/18 29/41/18 54/42/18 40/43/18
f 27/44/19 48/45/19 51/46/19 39/47/19
f 72/9/20 73/48/20 9/30/20 10/7/20
f 4/8/21 76/36/21 72/9/21
f 9/30/22 73/48/22 74/31/22
f 14/49/23 20/50/23 60/51/23 44/32/23
f 2/52/24 1/35/24 59/53/24 21/54/24
f 63/5/25 17/39/25 16/6/25
f 29/41/26 15/55/26 64/56/26 54/42/26
f 23/57/27 70/58/27 32/59/27 42/60/27
f 45/20/28 13/61/28 26/21/28
f 50/15/29 52/28/29 69/16/29
f 74/31/30 71/62/30 11/63/30 6/29/30
f 22/64/31 27/44/31 39/47/31 43/65/31
f 46/10/32 12/12/32 68/18/32
f 71/62/33 75/66/33 7/67/33 11/63/33
f 58/1/34 24/3/34 19/23/34
f 1/35/35 2/52/35 76/36/35
f 37/24/36 28/25/36 65/68/36
f 31/11/37 69/16/37 12/12/37
f 18/69/38 21/54/38 59/53/38 61/70/38
f 67/71/39 24/3/39 41/2/39 33/72/39
f 15/55/40 22/64/40 43/65/40 64/56/40
f 70/58/41 66/73/41 36/74/41 32/59/41
f 66/73/42 13/61/42 45/20/42 36/74/42
f 48/45/43 67/71/43 33/72/43 51/46/43
f 3/75/44 23/57/44 42/60/44 47/76/44
f 62/22/45 19/23/45 52/28/45
f 38/19/46 26/21/46 78/27/46
f 56/33/47 77/38/47 8/34/47
f 20/50/48 34/77/48 53/78/48 60/51/48
f 68/18/49 3/75/49 47/76/49 35/17/49
f 75/66/50 77/38/50 5/37/50 7/67/50
f 44/32/51 8/34/51 14/49/51
f 49/13/52 57/14/52 28/25/52
f 34/77/53 25/40/53 40/43/53 53/78/53
f 65/68/54 18/69/54 61/70/54 37/24/54
f 30/4/55 16/6/55 57/14/55
f 24/3/56 67/71/56 48/45/56 27/44/56 22/64/56 15/55/56 29/41/56 25/40/56 34/77/56 20/50/56 14/49/56 8/34/56 77/38/56 75/66/56 71/62/56 74/31/56 73/48/56 72/9/56 76/36/56 2/52/56 21/54/56 18/69/56 65/68/56 28/25/56 57/14/56 16/6/56 17/39/56 78/27/56 26/21/56 13/61/56 66/73/56 70/58/56 23/57/56 3/75/56 68/18/56 12/12/56 69/16/56 52/28/56 19/23/56
