# Blender v2.91.2 OBJ File: 'Seaway.blend11'
# www.blender.org
v 3.272047 -0.852160 0.811452
v -4.542951 -0.850433 -3.915707
v 4.789124 -0.850336 -4.740278
v -5.106836 -0.850433 -1.371752
v 0.915701 -0.850433 4.986282
v 1.858536 -0.850433 -4.186549
v -3.927152 -0.850433 -0.874987
v -3.349645 -0.850433 -0.177649
v 4.894893 -0.869331 -4.378564
v -1.916044 -0.850433 -2.196223
v 2.040506 -0.850433 -4.699344
v -1.077414 -0.850433 -1.850149
v 0.192712 -0.850433 5.697678
v 5.165695 -0.850373 -2.538759
v 5.271929 -0.850433 -1.091087
v -5.555980 -0.850433 -2.744267
v 1.292081 -0.850433 -3.838494
v 3.938240 -0.850433 -6.046000
v -4.136255 -0.854746 1.399646
v -2.617010 -0.850433 -3.922344
v 0.923377 -0.850433 -3.476388
v 4.803594 -0.850056 -0.076485
v 2.430673 -0.850433 1.925618
v 4.384093 -0.870761 0.430087
v -0.763569 -0.860311 5.725907
v 2.628507 -0.850433 -5.693130
v 1.769042 -0.850433 3.280168
v -3.244931 -0.850433 -5.001989
v 0.234343 -0.850433 -3.092964
v -4.147188 -0.850433 -4.639318
v -0.543700 -0.850433 -2.573031
v -5.484056 -0.869817 3.029746
v -4.805585 -0.869817 3.700421
v -1.282086 -0.869817 6.196963
v -4.655594 -0.870690 1.467970
v -4.971821 -0.869817 4.339210
v -4.560378 -0.869817 4.685153
v -3.872380 -0.869817 4.814736
v -2.367230 -0.869817 6.149422
v -5.431697 -0.869817 2.486935
v -3.335581 -0.869817 5.683390
v 4.840931 3.553508 -4.375244
v -3.926812 3.568669 -0.877546
v 2.007301 3.568669 -4.525173
v -5.173478 3.568669 -1.452969
v 3.622194 -0.870236 0.905471
v 5.095265 -0.868100 -2.901018
v 5.404142 -0.869817 -3.328619
v 0.889589 3.568669 5.027425
v 3.252647 3.565981 0.788007
v -4.714663 3.568669 -3.710920
v 4.755629 3.569280 -4.847315
v -3.641544 3.568669 0.555371
v -1.079171 3.568669 -1.851348
v 0.193467 3.568669 5.697367
v 5.167828 3.568752 -2.536152
v 2.653134 3.568669 1.514796
v 5.269799 3.568669 -1.081866
v -5.544828 3.568669 -2.769722
v 1.330539 3.568669 -3.868707
v -2.662313 3.568669 -4.106443
v 3.918434 3.568669 -6.045458
v -4.129317 3.562376 1.395075
v 0.978380 3.568669 -3.485759
v 4.801567 3.568942 -0.074245
v 2.061672 3.568669 2.685078
v -1.908471 3.568669 -2.196502
v 4.386819 3.548678 0.392185
v -0.742846 3.561535 5.730101
v 2.675453 3.568669 -5.724156
v -3.257506 3.568669 -4.990562
v 0.306320 3.568669 -3.121706
v -0.540439 3.568669 -2.572340
v 1.436975 3.568669 3.856550
v -4.133622 3.568669 -4.632580
v -3.295851 3.568669 -0.284596
v -5.467050 3.549285 3.064119
v -4.826674 3.549285 3.709103
v -1.466774 3.549285 6.261816
v -4.654451 3.548416 1.464409
v -4.955091 3.549285 4.494680
v -3.892153 3.549285 4.803375
v -5.406635 3.549285 2.468972
v -3.361655 3.549285 5.644204
v -2.654613 3.549285 6.099221
v 5.088277 3.551295 -2.894766
v 5.378676 3.549285 -3.204764
v 3.660888 3.548920 0.917045
v 5.244827 3.549285 -3.770826
vt 0.000000 0.000000
vt 0.000000 0.000000
vt 0.000000 0.000000
vt 0.000000 0.000000
vt 0.000000 0.000000
vt 0.000000 0.000000
vt 0.000000 0.000000
vt 0.000000 0.000000
vt 0.000000 0.000000
vt 0.000000 0.000000
vt 0.000000 0.000000
vt 0.000000 0.000000
vt 0.000000 0.000000
vt 0.000000 0.000000
vt 0.000000 0.000000
vt 0.000000 0.000000
vt 0.000000 0.000000
vt 0.000000 0.000000
vt 0.000000 0.000000
vt 0.000000 0.000000
vt 0.000000 0.000000
vt 0.000000 0.000000
vt 0.000000 0.000000
vt 0.000000 0.000000
vt 0.000000 0.000000
vt 0.000000 0.000000
vt 0.000000 0.000000
vt 0.000000 0.000000
vt 0.000000 0.000000
vt 0.000000 0.000000
vt 0.000000 0.000000
vt 0.000000 0.000000
vt 0.000000 0.000000
vt 0.000000 0.000000
vt 0.000000 0.000000
vt 0.000000 0.000000
vt 0.000000 0.000000
vt 0.000000 0.000000
vt 0.000000 0.000000
vt 0.000000 0.000000
vt 0.000000 0.000000
vt 0.000000 0.000000
vt 0.000000 0.000000
vt 0.000000 0.000000
vt 0.000000 0.000000
vt 0.000000 0.000000
vt 0.000000 0.000000
vt 0.000000 0.000000
vt 0.000000 0.000000
vt 0.000000 0.000000
vt 0.000000 0.000000
vt 0.000000 0.000000
vt 0.000000 0.000000
vt 0.000000 0.000000
vt 0.000000 0.000000
vt 0.000000 0.000000
vt 0.000000 0.000000
vt 0.000000 0.000000
vt 0.000000 0.000000
vt 0.000000 0.000000
vt 0.000000 0.000000
vt 0.000000 0.000000
vt 0.000000 0.000000
vt 0.000000 0.000000
vt 0.000000 0.000000
vt 0.000000 0.000000
vt 0.000000 0.000000
vt 0.000000 0.000000
vt 0.000000 0.000000
vt 0.000000 0.000000
vt 0.000000 0.000000
vt 0.000000 0.000000
vt 0.000000 0.000000
vt 0.000000 0.000000
vt 0.000000 0.000000
vt 0.000000 0.000000
vt 0.000000 0.000000
vt 0.000000 0.000000
vt 0.000000 0.000000
vt 0.000000 0.000000
vt 0.000000 0.000000
vt 0.000000 0.000000
vt 0.000000 0.000000
vt 0.000000 0.000000
vt 0.000000 0.000000
vt 0.000000 0.000000
vt 0.000000 0.000000
vt 0.000000 0.000000
vt 0.000000 0.000000
vn 0.8644 -0.0121 -0.5027
vn 0.7979 0.0158 0.6025
vn -0.6434 -0.0245 0.7652
vn 0.9265 -0.0016 -0.3763
vn 0.0295 -0.0011 0.9996
vn 0.8985 -0.0004 0.4389
vn -0.9424 0.0061 -0.3344
vn 0.5293 -0.0069 0.8484
vn -0.0438 -0.0165 0.9989
vn -0.9954 0.0053 -0.0960
vn 0.8944 0.0011 0.4473
vn -0.8948 0.0149 -0.4462
vn 0.8997 -0.0112 -0.4364
vn 0.9079 0.0002 0.4191
vn -0.8773 0.0034 -0.4798
vn 0.8378 -0.0069 -0.5460
vn -0.1306 -0.0008 -0.9914
vn -0.7564 0.0009 -0.6541
vn -0.7187 0.0045 -0.6953
vn 0.8295 0.0038 -0.5584
vn -0.4042 0.0056 0.9147
vn 0.9058 0.0128 0.4235
vn 0.9069 -0.0004 0.4214
vn -0.7500 -0.0019 -0.6615
vn -0.5497 0.0020 -0.8353
vn 0.9302 -0.0058 -0.3671
vn -0.8459 -0.0082 -0.5333
vn 0.0349 0.0001 0.9994
vn 0.5859 0.0066 0.8104
vn 0.6975 -0.0013 0.7166
vn 0.6280 0.0056 0.7782
vn 0.9790 0.0007 -0.2037
vn -0.8482 -0.0014 0.5296
vn -0.2553 -0.0026 -0.9668
vn 0.8197 0.0037 -0.5728
vn -0.7062 -0.0038 0.7080
vn -0.7298 0.0129 0.6835
vn 0.8925 -0.0030 0.4511
vn 0.3828 -0.0004 -0.9238
vn -0.4817 -0.0082 0.8763
vn 0.7591 0.0026 0.6510
vn -0.3756 0.0019 -0.9268
vn -0.1356 0.0024 0.9908
vn -0.8028 0.0001 -0.5963
vn 0.8314 0.0106 -0.5555
vn -0.4814 0.0031 -0.8765
vn 0.8824 0.0049 0.4705
vn -0.7980 0.0009 -0.6027
vn 0.7761 -0.0064 0.6306
vn -0.8677 0.0094 -0.4971
vn -0.6284 -0.0191 -0.7777
vn -0.9247 0.0020 -0.3806
vn 0.9748 0.0070 -0.2231
vn -0.9793 0.0033 -0.2026
vn -0.2428 0.0108 0.9700
vn 0.9731 0.0121 -0.2301
vn -0.2821 0.0019 0.9594
vn 0.9974 0.0001 -0.0716
vn -0.8647 0.0008 -0.5023
vn 0.7714 0.0068 0.6363
vn -0.9565 -0.0025 0.2918
vn -0.9949 0.0046 -0.1010
vn -0.0005 1.0000 0.0011
s off
f 20/1/1 28/2/1 61/3/1
f 23/4/2 1/5/2 57/6/2
f 36/7/3 37/8/3 81/9/3
f 10/10/4 20/1/4 67/11/4
f 25/12/5 13/13/5 69/14/5
f 27/15/6 23/4/6 66/16/6
f 11/17/7 6/18/7 44/19/7
f 46/20/8 24/21/8 88/22/8
f 39/23/9 34/24/9 79/25/9
f 40/26/10 32/27/10 83/28/10
f 5/29/11 27/15/11 49/30/11
f 8/31/12 19/32/12 53/33/12
f 48/34/13 9/35/13 89/36/13
f 22/37/14 15/38/14 65/39/14
f 30/40/15 2/41/15 75/42/15
f 3/43/16 18/44/16 52/45/16
f 80/46/17 63/47/17 19/32/17 35/48/17
f 2/41/18 16/49/18 51/50/18
f 64/51/19 60/52/19 17/53/19 21/54/19
f 28/2/20 71/55/20 61/3/20
f 43/56/21 45/57/21 4/58/21 7/59/21
f 27/15/22 74/60/22 49/30/22
f 15/38/23 58/61/23 65/39/23
f 16/49/24 59/62/24 51/50/24
f 73/63/25 72/64/25 29/65/25 31/66/25
f 20/1/26 61/3/26 67/11/26
f 2/41/27 51/50/27 75/42/27
f 13/13/28 55/67/28 69/14/28
f 24/21/29 68/68/29 88/22/29
f 49/30/30 55/67/30 13/13/30 5/29/30
f 69/14/31 79/25/31 34/24/31 25/12/31
f 86/69/32 56/70/32 14/71/32 47/72/32
f 84/73/33 82/74/33 38/75/33 41/76/33
f 70/77/34 62/78/34 18/44/34 26/79/34
f 18/44/35 62/78/35 52/45/35
f 78/80/36 77/81/36 32/27/36 33/82/36
f 76/83/37 43/56/37 7/59/37 8/31/37
f 23/4/38 57/6/38 66/16/38
f 67/11/39 54/84/39 12/85/39 10/10/39
f 85/86/40 84/73/40 41/76/40 39/23/40
f 68/68/41 24/21/41 22/37/41 65/39/41
f 75/42/42 71/55/42 28/2/42 30/40/42
f 39/23/43 79/25/43 85/86/43
f 54/84/44 73/63/44 31/66/44 12/85/44
f 9/35/45 42/87/45 89/36/45
f 72/64/46 64/51/46 21/54/46 29/65/46
f 27/15/47 66/16/47 74/60/47
f 83/28/48 80/46/48 35/48/48 40/26/48
f 87/88/49 86/69/49 47/72/49 48/34/49
f 44/19/50 70/77/50 26/79/50 11/17/50
f 60/52/51 44/19/51 6/18/51 17/53/51
f 8/31/52 53/33/52 76/83/52
f 42/87/53 9/35/53 3/43/53 52/45/53
f 81/9/54 78/80/54 33/82/54 36/7/54
f 82/74/55 81/9/55 37/8/55 38/75/55
f 48/34/56 89/36/56 87/88/56
f 88/22/57 50/89/57 1/5/57 46/20/57
f 56/70/58 58/61/58 15/38/58 14/71/58
f 19/32/59 63/47/59 53/33/59
f 1/5/60 50/89/60 57/6/60
f 45/57/61 59/62/61 16/49/61 4/58/61
f 32/27/62 77/81/62 83/28/62
f 59/62/63 45/57/63 43/56/63 76/83/63 53/33/63 63/47/63 80/46/63 83/28/63 77/81/63 78/80/63 81/9/63 82/74/63 84/73/63 85/86/63 79/25/63 69/14/63 55/67/63 49/30/63 74/60/63 66/16/63 57/6/63 50/89/63 88/22/63 68/68/63 65/39/63 58/61/63 56/70/63 86/69/63 87/88/63 89/36/63 42/87/63 52/45/63 62/78/63 70/77/63 44/19/63 60/52/63 64/51/63 72/64/63 73/63/63 54/84/63 67/11/63 61/3/63 71/55/63 75/42/63 51/50/63
