# Blender v2.91.2 OBJ File: 'Seaway.blend11'
# www.blender.org
v -5.378449 -0.844741 3.412060
v 0.305720 -0.844741 4.444896
v 3.803599 -0.844741 -4.847425
v -2.253918 -0.844741 3.984722
v 0.695448 -0.844741 3.439136
v -5.601921 -0.844741 2.248808
v 0.497666 -0.844741 1.164323
v 3.295244 -0.844741 3.764576
v -5.104633 -0.844741 1.405356
v -2.412558 -0.844741 2.640854
v -2.882420 -0.844741 -1.380977
v 4.210070 -0.844205 2.035804
v 1.259798 -0.844741 -5.185442
v -1.300676 4.841862 -4.729449
v -4.323733 -0.844741 0.644015
v 0.782275 -0.844741 5.190991
v -2.143738 -0.844741 -4.746469
v 1.529348 -0.844741 5.089348
v -3.886552 2.169947 4.518166
v 4.607654 -0.844741 -3.735842
v -3.610815 -0.844741 1.011243
v -1.602707 -0.844741 -1.401852
v -3.935058 -0.844741 4.530734
v -1.811284 4.841862 -1.453194
v -1.303769 -0.844741 -4.726763
v -0.654177 -0.844741 -0.692159
v 2.864681 -0.844741 -5.163365
v 5.394135 -0.844741 -3.050497
v -0.529547 -0.844741 -4.829477
v 2.426392 -0.844741 4.633193
v 5.092708 -0.851731 -1.166946
v -3.219690 -0.844741 -2.162256
v 5.652056 -0.844741 -2.106076
v -2.791855 -0.844741 -3.313278
v -2.175192 4.841862 -4.725757
v -3.395538 2.169947 1.222108
v 5.398582 4.841862 -2.959264
v 4.393271 -0.869599 1.563838
v 5.166035 -0.870761 0.130049
v 0.784002 4.841862 5.188305
v -4.319664 2.169947 0.641209
v 1.286403 4.841862 -5.190991
v -5.079980 2.169947 3.788323
v 4.201917 4.842442 2.039692
v -2.879489 4.841862 -1.382563
v 0.352348 4.841862 4.409074
v -5.105274 2.169947 1.412744
v -2.059087 2.169947 3.471418
v 3.262944 4.841862 3.800073
v -2.456948 2.169947 4.109889
v 0.467061 4.841862 1.099995
v 0.720911 4.841862 3.374351
v 3.839595 4.841862 -4.820496
v -5.652056 2.169947 2.416235
v 1.520567 4.841862 5.074596
v -0.654681 4.841862 -0.692318
v 2.877544 4.841862 -5.164210
v -0.479369 4.841862 -4.853585
v 5.078813 4.834679 -1.159850
v -3.201478 4.841862 -2.178185
v 2.436453 4.841862 4.626256
v 5.645409 4.841862 -2.061724
v -2.763094 4.841862 -3.365213
v 4.362731 4.817809 1.598078
v 5.159255 4.815842 0.145744
vt 0.000000 0.000000
vt 0.000000 0.000000
vt 0.000000 0.000000
vt 0.000000 0.000000
vt 0.000000 0.000000
vt 0.000000 0.000000
vt 0.000000 0.000000
vt 0.000000 0.000000
vt 0.000000 0.000000
vt 0.000000 0.000000
vt 0.000000 0.000000
vt 0.000000 0.000000
vt 0.000000 0.000000
vt 0.000000 0.000000
vt 0.000000 0.000000
vt 0.000000 0.000000
vt 0.000000 0.000000
vt 0.000000 0.000000
vt 0.000000 0.000000
vt 0.000000 0.000000
vt 0.000000 0.000000
vt 0.000000 0.000000
vt 0.000000 0.000000
vt 0.000000 0.000000
vt 0.000000 0.000000
vt 0.000000 0.000000
vt 0.000000 0.000000
vt 0.000000 0.000000
vt 0.000000 0.000000
vt 0.000000 0.000000
vt 0.000000 0.000000
vt 0.000000 0.000000
vt 0.000000 0.000000
vt 0.000000 0.000000
vt 0.000000 0.000000
vt 0.000000 0.000000
vt 0.000000 0.000000
vt 0.000000 0.000000
vt 0.000000 0.000000
vt 0.000000 0.000000
vt 0.000000 0.000000
vt 0.000000 0.000000
vt 0.000000 0.000000
vt 0.000000 0.000000
vt 0.000000 0.000000
vt 0.000000 0.000000
vt 0.000000 0.000000
vt 0.000000 0.000000
vt 0.000000 0.000000
vt 0.000000 0.000000
vt 0.000000 0.000000
vt 0.000000 0.000000
vt 0.000000 0.000000
vt 0.000000 0.000000
vt 0.000000 0.000000
vt 0.000000 0.000000
vt 0.000000 0.000000
vt 0.000000 0.000000
vt 0.000000 0.000000
vt 0.000000 0.000000
vt 0.000000 0.000000
vt 0.000000 0.000000
vt 0.000000 0.000000
vt 0.000000 0.000000
vt 0.000000 0.000000
vn -0.9112 -0.0035 -0.4120
vn 0.7070 -0.0004 0.7072
vn 0.8055 -0.0161 -0.5923
vn -0.9817 -0.0268 0.1886
vn 0.6569 0.0116 -0.7539
vn -0.9226 0.0023 0.3857
vn 0.4533 0.0030 0.8914
vn 0.0235 -0.0005 -0.9997
vn 0.9896 -0.0838 -0.1168
vn -0.6121 -0.0380 0.7898
vn 0.5011 0.0116 -0.8653
vn -0.1408 -0.0017 -0.9900
vn 0.4397 0.0003 0.8982
vn 0.1436 0.0016 0.9896
vn 0.7828 -0.0130 -0.6222
vn -0.8487 0.0007 0.5288
vn 0.2933 -0.0103 0.9560
vn -0.0042 0.0036 -1.0000
vn -0.9374 0.0029 -0.3483
vn 0.8831 0.0015 0.4692
vn -0.9377 0.0018 -0.3474
vn 0.9359 0.0020 0.3523
vn 0.8531 -0.0008 0.5217
vn -0.1914 -0.0013 -0.9815
vn 0.9983 0.0019 -0.0590
vn -0.6994 0.0009 -0.7147
vn -0.8592 0.0054 0.5116
vn 0.0389 0.0054 0.9992
vn -0.9180 0.0010 -0.3967
vn 0.8785 0.0008 0.4777
vn 0.9644 0.0033 -0.2643
vn 0.8482 0.0352 0.5285
vn -0.9221 0.0433 0.3845
vn -0.8705 0.0069 -0.4921
vn 0.3278 0.0008 -0.9447
vn -0.9951 0.0007 0.0988
vn -0.5217 0.0120 0.8531
vn 0.0153 -0.0006 -0.9999
vn -0.5727 -0.0068 0.8198
vn 0.8590 0.0399 -0.5104
vn 0.0012 1.0000 0.0004
vn 0.0000 1.0000 0.0000
s off
f 17/1/1 34/2/1 35/3/1
f 30/4/2 8/5/2 61/6/2
f 10/7/3 21/8/3 36/9/3
f 6/10/4 1/11/4 54/12/4
f 28/13/5 20/14/5 37/15/5
f 45/16/6 60/17/6 32/18/6 11/19/6
f 18/20/7 30/4/7 55/21/7
f 25/22/8 17/1/8 14/23/8
f 4/24/9 10/7/9 48/25/9
f 1/11/10 23/26/10 43/27/10
f 41/28/11 36/9/11 21/8/11 15/29/11
f 14/23/12 58/30/12 29/31/12 25/22/12
f 30/4/13 61/6/13 55/21/13
f 55/21/14 40/32/14 16/33/14 18/20/14
f 53/34/15 37/15/15 20/14/15 3/35/15
f 51/36/16 56/37/16 26/38/16 7/39/16
f 50/40/17 19/41/17 23/26/17 4/24/17
f 17/1/18 35/3/18 14/23/18
f 46/42/19 52/43/19 5/44/19 2/45/19
f 44/46/20 49/47/20 8/5/20 12/48/20
f 60/17/21 63/49/21 34/2/21 32/18/21
f 8/5/2 49/47/2 61/6/2
f 64/50/22 44/46/22 12/48/22 38/51/22
f 62/52/23 59/53/23 31/54/23 33/55/23
f 58/30/24 42/56/24 13/57/24 29/31/24
f 59/53/25 65/58/25 39/59/25 31/54/25
f 47/60/26 41/28/26 15/29/26 9/61/26
f 40/32/27 46/42/27 2/45/27 16/33/27
f 24/62/28 45/16/28 11/19/28 22/63/28
f 34/2/29 63/49/29 35/3/29
f 65/58/30 64/50/30 38/51/30 39/59/30
f 37/15/31 62/52/31 33/55/31 28/13/31
f 4/24/32 48/25/32 50/40/32
f 1/11/33 43/27/33 54/12/33
f 54/12/34 47/60/34 9/61/34 6/10/34
f 57/64/35 53/34/35 3/35/35 27/65/35
f 52/43/36 51/36/36 7/39/36 5/44/36
f 23/26/37 19/41/37 43/27/37
f 42/56/38 57/64/38 27/65/38 13/57/38
f 56/37/39 24/62/39 22/63/39 26/38/39
f 10/7/40 36/9/40 48/25/40
f 35/3/41 63/49/41 60/17/41 45/16/41 24/62/41 56/37/41 51/36/41 52/43/41 46/42/41 40/32/41 55/21/41 61/6/41 49/47/41 44/46/41 64/50/41 65/58/41 59/53/41 62/52/41 37/15/41 53/34/41 57/64/41 42/56/41 58/30/41 14/23/41
f 50/40/42 48/25/42 36/9/42 41/28/42 47/60/42 54/12/42 43/27/42 19/41/42
