# Blender v2.91.2 OBJ File: 'Seaway.blend11'
# www.blender.org
v 3.063670 -0.870761 -2.471462
v 3.599171 -0.870761 -2.240408
v -1.664593 -0.870761 -3.919362
v -0.770449 -0.870761 -6.576643
v 2.076432 -0.870761 -4.192284
v 2.272871 -0.870761 -1.827781
v -5.265471 -0.870761 0.173481
v -5.467290 -0.870761 -0.568833
v -2.338509 -0.870761 6.461530
v -2.650886 -0.870761 -1.601530
v -0.738978 -0.870761 6.057116
v -4.231718 -0.870761 -3.314558
v 1.619898 -0.870761 0.270743
v 2.816199 -0.870761 2.963583
v 6.315663 -0.870761 -0.707033
v 6.569878 -0.870761 1.728667
v -2.514530 -0.870761 -4.375604
v -2.067421 -0.870761 -5.594096
v -2.462101 -0.870761 4.916819
v 0.938183 -0.870761 -6.396348
v -4.272729 -0.870761 0.117048
v -1.283974 -0.870761 6.763597
v -1.677927 -0.870761 4.717043
v -5.203544 -0.870761 -2.761284
v -0.312912 -0.870761 -3.507404
v -3.121552 -0.870761 -2.995326
v 1.919420 -0.870761 1.926890
v 1.416657 -0.870761 -3.834099
v 3.622873 -0.870761 3.565334
v -2.787488 -0.870761 5.628218
v -0.932630 -0.870761 5.164184
v 5.241207 -0.870761 3.520714
v 5.376460 2.903201 3.385470
v -0.921511 1.508386 5.180757
v 4.057136 2.903201 3.689556
v -2.786347 1.508386 5.611594
v -2.856140 1.806354 -2.638542
v 6.385635 2.903201 -0.602976
v 1.402538 2.476194 -3.816952
v -2.505881 2.476194 -4.389996
v 3.063047 2.903201 3.175914
v 1.850150 2.903201 1.783703
v -3.344708 1.806354 -3.062145
v -0.387916 2.476194 -3.519538
v -5.225966 1.806354 -2.763969
v -1.664246 1.508386 4.720613
v -1.323216 1.508386 6.775104
v -4.319281 1.806354 0.131092
v 0.987105 2.476194 -6.370721
v -2.453310 1.508386 4.908427
v 3.222996 2.903201 -2.467560
v -2.040309 2.476194 -5.622983
v 6.538059 2.903201 1.800322
v 1.616356 2.903201 0.121610
v -4.201284 1.806354 -3.308199
v 5.810530 2.903201 -1.127853
v -0.738955 1.508386 6.069574
v -2.667380 1.806354 -1.601248
v -2.416200 1.508386 6.411861
v -5.471779 1.806354 -0.564939
v -5.265471 1.806354 0.173481
v 2.302556 2.903201 -1.905343
v 2.080600 2.476194 -4.140680
v -0.693030 2.476194 -6.592478
v -1.664362 2.476194 -3.911036
vt 0.000000 0.000000
vt 0.000000 0.000000
vt 0.000000 0.000000
vt 0.000000 0.000000
vt 0.000000 0.000000
vt 0.000000 0.000000
vt 0.000000 0.000000
vt 0.000000 0.000000
vt 0.000000 0.000000
vt 0.000000 0.000000
vt 0.000000 0.000000
vt 0.000000 0.000000
vt 0.000000 0.000000
vt 0.000000 0.000000
vt 0.000000 0.000000
vt 0.000000 0.000000
vt 0.000000 0.000000
vt 0.000000 0.000000
vt 0.000000 0.000000
vt 0.000000 0.000000
vt 0.000000 0.000000
vt 0.000000 0.000000
vt 0.000000 0.000000
vt 0.000000 0.000000
vt 0.000000 0.000000
vt 0.000000 0.000000
vt 0.000000 0.000000
vt 0.000000 0.000000
vt 0.000000 0.000000
vt 0.000000 0.000000
vt 0.000000 0.000000
vt 0.000000 0.000000
vt 0.000000 0.000000
vt 0.000000 0.000000
vt 0.000000 0.000000
vt 0.000000 0.000000
vt 0.000000 0.000000
vt 0.000000 0.000000
vt 0.000000 0.000000
vt 0.000000 0.000000
vt 0.000000 0.000000
vt 0.000000 0.000000
vt 0.000000 0.000000
vt 0.000000 0.000000
vt 0.000000 0.000000
vt 0.000000 0.000000
vt 0.000000 0.000000
vt 0.000000 0.000000
vt 0.000000 0.000000
vt 0.000000 0.000000
vt 0.000000 0.000000
vt 0.000000 0.000000
vt 0.000000 0.000000
vt 0.000000 0.000000
vt 0.000000 0.000000
vt 0.000000 0.000000
vt 0.000000 0.000000
vt 0.000000 0.000000
vt 0.000000 0.000000
vt 0.000000 0.000000
vt 0.000000 0.000000
vt 0.000000 0.000000
vt 0.000000 0.000000
vt 0.000000 0.000000
vt 0.000000 0.000000
vn -0.9372 0.0028 -0.3489
vn 0.2764 -0.0010 -0.9611
vn 0.0275 -0.0361 0.9990
vn 0.4913 -0.0313 -0.8704
vn -0.4730 0.0050 0.8811
vn 0.3961 -0.0158 -0.9181
vn -0.5979 -0.0060 0.8015
vn -0.9066 -0.0003 -0.4220
vn -0.2959 0.0004 0.9552
vn 0.7255 0.0067 0.6882
vn -0.2392 0.0001 -0.9710
vn 0.7810 0.0033 0.6246
vn -0.5939 0.0039 -0.8045
vn 0.4541 -0.0085 0.8909
vn 0.9784 -0.0010 -0.2066
vn -0.9511 -0.0060 -0.3087
vn -0.8939 -0.0081 0.4482
vn 0.2761 -0.0009 -0.9611
vn -0.7549 0.0118 0.6557
vn -0.4947 -0.0021 0.8691
vn 0.1178 -0.0008 -0.9930
vn 0.4598 -0.0076 -0.8880
vn 0.6741 0.0079 -0.7386
vn 0.6547 0.0357 -0.7551
vn 0.8048 -0.0060 0.5935
vn -0.9641 -0.0010 0.2657
vn 0.9648 -0.0274 -0.2617
vn -0.4817 0.0013 -0.8763
vn -0.4589 0.0236 0.8882
vn -0.9873 -0.0034 0.1587
vn 0.0509 -0.0022 0.9987
vn 0.5206 0.0009 -0.8538
vn -0.9933 -0.0050 -0.1153
vn 0.2245 0.0269 0.9741
vn -0.5760 0.0064 -0.8174
vn 0.1746 0.0016 0.9846
vn -0.2924 -0.0027 0.9563
vn 0.8932 -0.0019 -0.4496
vn 0.9965 -0.0031 -0.0837
vn 0.0000 1.0000 -0.0000
s off
f 40/1/1 52/2/1 18/3/1 17/4/1
f 26/5/2 12/6/2 43/7/2
f 29/8/3 32/9/3 35/10/3
f 15/11/4 2/12/4 56/13/4
f 17/4/5 3/14/5 40/1/5
f 2/12/6 1/15/6 51/16/6
f 14/17/7 29/8/7 41/18/7
f 36/19/8 50/20/8 19/21/8 30/22/8
f 47/23/9 59/24/9 9/25/9 22/26/9
f 58/27/10 48/28/10 21/29/10 10/30/10
f 50/20/11 46/31/11 23/32/11 19/21/11
f 57/33/12 47/23/12 22/26/12 11/34/12
f 52/2/13 64/35/13 4/36/13 18/3/13
f 63/37/14 39/38/14 28/39/14 5/40/14
f 34/41/15 57/33/15 11/34/15 31/42/15
f 54/43/16 62/44/16 6/45/16 13/46/16
f 59/24/17 36/19/17 30/22/17 9/25/17
f 12/6/18 55/47/18 43/7/18
f 41/18/19 42/48/19 27/49/19 14/17/19
f 3/14/20 65/50/20 40/1/20
f 64/35/21 49/51/21 20/52/21 4/36/21
f 2/12/22 51/16/22 56/13/22
f 15/11/23 56/13/23 38/53/23
f 26/5/24 43/7/24 37/54/24
f 53/55/25 33/56/25 32/9/25 16/57/25
f 61/58/26 60/59/26 8/60/26 7/61/26
f 37/54/27 58/27/27 10/30/27 26/5/27
f 45/62/28 55/47/28 12/6/28 24/63/28
f 29/8/29 35/10/29 41/18/29
f 42/48/30 54/43/30 13/46/30 27/49/30
f 48/28/31 61/58/31 7/61/31 21/29/31
f 46/31/32 34/41/32 31/42/32 23/32/32
f 60/59/33 45/62/33 24/63/33 8/60/33
f 32/9/34 33/56/34 35/10/34
f 62/44/35 51/16/35 1/15/35 6/45/35
f 39/38/36 44/64/36 25/65/36 28/39/36
f 44/64/37 65/50/37 3/14/37 25/65/37
f 49/51/38 63/37/38 5/40/38 20/52/38
f 38/53/39 53/55/39 16/57/39 15/11/39
f 59/24/40 47/23/40 57/33/40 34/41/40 46/31/40 50/20/40 36/19/40
f 43/7/40 55/47/40 45/62/40 60/59/40 61/58/40 48/28/40 58/27/40 37/54/40
f 63/37/40 49/51/40 64/35/40 52/2/40 40/1/40 65/50/40 44/64/40 39/38/40
f 41/18/40 35/10/40 33/56/40 53/55/40 38/53/40 56/13/40 51/16/40 62/44/40 54/43/40 42/48/40
