# Blender v2.91.2 OBJ File: 'Seaway.blend11'
# www.blender.org
v 0.354865 -0.870761 6.122679
v 5.119549 -0.870761 3.764639
v 0.079988 -0.870761 5.477765
v -5.599730 -0.870761 1.261494
v -2.050281 -0.870761 -2.295338
v -5.445845 -0.870761 0.645744
v -4.539120 -0.870761 -4.411215
v 0.736440 -0.870761 0.519576
v -3.688125 -0.870761 4.208521
v 2.435420 -0.870761 5.217799
v 6.432934 -0.870761 0.696440
v -3.792030 -0.870761 3.340647
v 5.764831 -0.870761 1.935464
v -1.631850 -0.870761 -0.153562
v 3.490505 -0.870761 -0.807959
v 1.206904 -0.870761 6.072235
v -5.236997 -0.870761 -3.582273
v 3.957737 -0.870761 4.770260
v -2.467315 -0.870761 -3.283002
v -0.423881 -0.870761 4.509432
v -5.132716 -0.870761 -1.523424
v -3.689651 -0.870761 -4.405025
v -2.535763 -0.870761 4.444028
v -1.010886 -0.870761 0.501232
v -4.199195 -0.870761 2.197513
v 5.963054 -0.870761 -0.329300
v 2.452672 -0.870761 -0.727872
v -1.905913 4.949660 -1.712472
v 0.307484 4.949660 6.087531
v -5.292712 4.949660 -3.164538
v 5.125174 4.949660 3.766858
v 0.088897 4.949660 5.477743
v -5.642986 4.949660 1.206940
v -2.226442 4.949660 -2.735929
v -2.882092 4.949660 4.595575
v -5.445216 4.949660 0.625674
v 0.744111 4.949660 0.508471
v -3.687466 4.949660 4.058987
v -1.582284 4.949660 -0.031193
v 2.357972 4.949660 5.240935
v 5.742459 4.949660 1.955626
v 1.158419 4.949660 6.103835
v 3.905004 4.949660 4.785147
v -0.366541 4.949660 4.568218
v -5.171947 4.949660 -1.153993
v -2.771103 4.949660 -3.695303
v -1.646121 4.949660 4.290551
v -3.771988 4.949660 -4.436334
v 6.505852 4.949660 0.422034
v -4.829642 4.949660 -4.308414
v -0.962615 4.949660 0.526845
v -4.223117 4.949660 2.149121
v 5.708147 4.949660 -0.414144
v 2.760348 4.949660 -0.859810
vt 0.000000 0.000000
vt 0.000000 0.000000
vt 0.000000 0.000000
vt 0.000000 0.000000
vt 0.000000 0.000000
vt 0.000000 0.000000
vt 0.000000 0.000000
vt 0.000000 0.000000
vt 0.000000 0.000000
vt 0.000000 0.000000
vt 0.000000 0.000000
vt 0.000000 0.000000
vt 0.000000 0.000000
vt 0.000000 0.000000
vt 0.000000 0.000000
vt 0.000000 0.000000
vt 0.000000 0.000000
vt 0.000000 0.000000
vt 0.000000 0.000000
vt 0.000000 0.000000
vt 0.000000 0.000000
vt 0.000000 0.000000
vt 0.000000 0.000000
vt 0.000000 0.000000
vt 0.000000 0.000000
vt 0.000000 0.000000
vt 0.000000 0.000000
vt 0.000000 0.000000
vt 0.000000 0.000000
vt 0.000000 0.000000
vt 0.000000 0.000000
vt 0.000000 0.000000
vt 0.000000 0.000000
vt 0.000000 0.000000
vt 0.000000 0.000000
vt 0.000000 0.000000
vt 0.000000 0.000000
vt 0.000000 0.000000
vt 0.000000 0.000000
vt 0.000000 0.000000
vt 0.000000 0.000000
vt 0.000000 0.000000
vt 0.000000 0.000000
vt 0.000000 0.000000
vt 0.000000 0.000000
vt 0.000000 0.000000
vt 0.000000 0.000000
vt 0.000000 0.000000
vt 0.000000 0.000000
vt 0.000000 0.000000
vt 0.000000 0.000000
vt 0.000000 0.000000
vt 0.000000 0.000000
vt 0.000000 0.000000
vn -0.9420 -0.0011 0.3355
vn -0.9929 0.0032 0.1189
vn -0.0769 -0.0185 -0.9969
vn 0.6761 -0.0169 -0.7366
vn -0.0309 0.0311 0.9990
vn 0.9087 -0.0310 -0.4163
vn 0.5710 0.0043 0.8210
vn 0.9212 -0.0016 -0.3890
vn -0.0000 0.0012 -1.0000
vn -0.7647 -0.0268 -0.6438
vn 0.9814 -0.0051 -0.1917
vn -0.9986 -0.0132 0.0506
vn -0.8871 0.0041 0.4616
vn -0.9306 -0.0020 0.3660
vn -0.9268 0.0181 -0.3752
vn 0.6990 0.0032 -0.7151
vn -0.9627 -0.0160 0.2700
vn 0.8696 0.0104 -0.4937
vn -0.3669 -0.0111 0.9302
vn 0.1681 0.0026 -0.9858
vn 0.0200 0.0005 0.9998
vn 0.2823 0.0000 0.9593
vn 0.9448 0.0007 0.3277
vn -0.5543 0.0042 0.8323
vn 0.6475 0.0015 0.7621
vn 0.5950 0.0041 -0.8037
vn -0.0637 0.0041 -0.9980
vn -0.5739 0.0055 -0.8189
vn 0.7234 0.0216 -0.6901
vn -0.9892 0.0011 -0.1469
vn 0.8885 0.0062 0.4588
vn -0.9594 -0.0053 -0.2819
vn -0.9981 -0.0105 0.0600
vn 0.9543 0.0063 -0.2989
vn 0.2396 -0.0110 0.9708
vn 0.9820 -0.0044 -0.1890
vn 0.5840 0.0005 0.8118
vn -0.8942 0.0014 0.4477
vn -0.2121 -0.0078 0.9772
vn 0.0000 1.0000 -0.0000
s off
f 25/1/1 12/2/1 52/3/1
f 12/2/2 9/4/2 38/5/2
f 15/6/3 27/7/3 54/8/3
f 19/9/4 22/10/4 46/11/4
f 23/12/5 20/13/5 47/14/5
f 11/15/6 26/16/6 49/17/6
f 16/18/7 10/19/7 40/20/7
f 5/21/8 19/9/8 34/22/8
f 51/23/9 37/24/9 8/25/9 24/26/9
f 7/27/10 17/28/10 50/29/10
f 14/30/11 5/21/11 28/31/11
f 17/28/12 21/32/12 30/33/12
f 20/13/13 3/34/13 44/35/13
f 29/36/14 32/37/14 3/34/14 1/38/14
f 17/28/15 30/33/15 50/29/15
f 39/39/16 51/23/16 24/26/16 14/30/16
f 12/2/17 38/5/17 52/3/17
f 19/9/18 46/11/18 34/22/18
f 35/40/19 38/5/19 9/4/19 23/12/19
f 54/8/20 53/41/20 26/16/20 15/6/20
f 42/42/21 29/36/21 1/38/21 16/18/21
f 43/43/22 40/20/22 10/19/22 18/44/22
f 41/45/23 31/46/23 2/47/23 13/48/23
f 52/3/24 33/49/24 4/50/24 25/1/24
f 31/46/25 43/43/25 18/44/25 2/47/25
f 22/10/26 48/51/26 46/11/26
f 50/29/27 48/51/27 22/10/27 7/27/27
f 37/24/28 54/8/28 27/7/28 8/25/28
f 26/16/29 53/41/29 49/17/29
f 36/52/30 45/53/30 21/32/30 6/54/30
f 49/17/31 41/45/31 13/48/31 11/15/31
f 33/49/32 36/52/32 6/54/32 4/50/32
f 21/32/33 45/53/33 30/33/33
f 5/21/34 34/22/34 28/31/34
f 23/12/35 47/14/35 35/40/35
f 14/30/36 28/31/36 39/39/36
f 16/18/37 40/20/37 42/42/37
f 3/34/38 32/37/38 44/35/38
f 20/13/39 44/35/39 47/14/39
f 29/36/40 42/42/40 40/20/40 43/43/40 31/46/40 41/45/40 49/17/40 53/41/40 54/8/40 37/24/40 51/23/40 39/39/40 28/31/40 34/22/40 46/11/40 48/51/40 50/29/40 30/33/40 45/53/40 36/52/40 33/49/40 52/3/40 38/5/40 35/40/40 47/14/40 44/35/40 32/37/40
