# Blender v2.91.2 OBJ File: 'Seaway.blend11'
# www.blender.org
v 5.111155 -0.870762 0.682217
v -0.201381 -0.870762 -0.692210
v -3.502940 -0.870762 2.463924
v 5.846842 -0.870762 1.412388
v 2.232956 -0.870762 -3.703501
v 6.165272 -0.870762 2.355106
v -0.585340 -0.870762 0.419037
v 1.086172 -0.870762 -1.561507
v -4.896659 -0.870762 -2.622267
v 3.341001 -0.870762 1.165326
v 5.762295 -0.870762 4.435207
v -4.711049 -0.870762 1.772317
v 3.241031 -0.870762 2.286807
v 3.880240 -0.870762 -2.612757
v 4.112806 -0.870762 4.127929
v -1.497023 -0.870762 -4.052603
v 3.514926 -0.870762 -1.796479
v 4.861374 -0.870762 4.599560
v 4.196979 -0.870762 0.479848
v -6.140471 -0.870762 -1.230012
v -1.338727 -0.870762 2.329463
v -6.141441 -0.870762 0.577339
v 0.531779 -0.870762 -4.599560
v -2.024782 -0.870762 2.700535
v 5.102875 1.664515 0.667271
v -0.180724 2.533235 -0.712775
v 5.833247 1.664515 1.440904
v 1.984496 2.533235 -3.825639
v -4.479729 2.533235 -2.828658
v -0.548036 2.533235 0.231942
v 6.176535 1.664515 2.442441
v -4.130905 2.533235 2.152685
v 3.324480 1.664515 1.135636
v -1.547498 2.533235 -4.040800
v 3.153004 1.664515 1.975904
v 2.923785 2.533235 -3.464378
v 3.921602 2.533235 -2.505749
v -5.821225 2.533235 -1.724746
v 3.363644 2.533235 -1.732451
v 4.433039 1.664515 4.515934
v 4.196229 1.664515 0.475896
v -6.176535 2.533235 -0.978028
v -1.324368 2.533235 2.320677
v 1.083523 2.533235 -1.543528
v -6.114697 2.533235 0.616404
v 5.711536 1.664515 4.451561
v 0.501939 2.533235 -4.594451
v -2.079267 2.533235 2.720350
vt 0.000000 0.000000
vt 0.000000 0.000000
vt 0.000000 0.000000
vt 0.000000 0.000000
vt 0.000000 0.000000
vt 0.000000 0.000000
vt 0.000000 0.000000
vt 0.000000 0.000000
vt 0.000000 0.000000
vt 0.000000 0.000000
vt 0.000000 0.000000
vt 0.000000 0.000000
vt 0.000000 0.000000
vt 0.000000 0.000000
vt 0.000000 0.000000
vt 0.000000 0.000000
vt 0.000000 0.000000
vt 0.000000 0.000000
vt 0.000000 0.000000
vt 0.000000 0.000000
vt 0.000000 0.000000
vt 0.000000 0.000000
vt 0.000000 0.000000
vt 0.000000 0.000000
vt 0.000000 0.000000
vt 0.000000 0.000000
vt 0.000000 0.000000
vt 0.000000 0.000000
vt 0.000000 0.000000
vt 0.000000 0.000000
vt 0.000000 0.000000
vt 0.000000 0.000000
vt 0.000000 0.000000
vt 0.000000 0.000000
vt 0.000000 0.000000
vt 0.000000 0.000000
vt 0.000000 0.000000
vt 0.000000 0.000000
vt 0.000000 0.000000
vt 0.000000 0.000000
vt 0.000000 0.000000
vt 0.000000 0.000000
vt 0.000000 0.000000
vt 0.000000 0.000000
vt 0.000000 0.000000
vt 0.000000 0.000000
vt 0.000000 0.000000
vt 0.000000 0.000000
vn -0.1581 -0.0083 0.9874
vn 0.9474 0.0087 -0.3200
vn -0.5320 -0.0620 0.8444
vn -0.7455 -0.0269 -0.6660
vn 0.9817 -0.0109 0.1902
vn -0.9950 -0.0454 -0.0887
vn -0.4968 -0.0123 0.8678
vn 0.5513 -0.0534 -0.8326
vn -0.3878 -0.0084 -0.9217
vn 0.9125 -0.0239 0.4084
vn 0.0963 -0.0144 0.9952
vn 0.9460 0.0070 -0.3242
vn -0.6351 0.0310 -0.7718
vn -0.9798 -0.0087 -0.1999
vn 0.2114 -0.0033 -0.9774
vn -0.9998 -0.0021 0.0179
vn 0.6927 0.0142 -0.7211
vn 0.0826 -0.0052 0.9966
vn 0.1043 0.0231 0.9943
vn -0.3820 -0.0025 -0.9241
vn 0.9340 0.0032 0.3573
vn -0.2606 -0.0007 -0.9655
vn 0.5544 -0.0012 0.8322
vn 0.3590 -0.0073 -0.9333
vn 0.7160 0.0050 -0.6981
vn -0.8971 0.0344 0.4406
vn 0.4634 0.0037 -0.8861
vn 0.9393 0.0025 0.3432
vn -0.6247 0.0076 0.7809
vn 0.8107 0.0250 0.5849
vn -0.9028 0.0222 -0.4296
vn 0.4717 0.0014 0.8818
vn 0.9741 0.0180 0.2254
vn -0.2665 0.0389 0.9631
vn -0.6143 -0.0073 -0.7890
vn 0.0000 1.0000 -0.0000
s off
f 24/1/1 48/2/1 3/3/1
f 4/4/2 27/5/2 6/6/2
f 18/7/3 40/8/3 15/9/3
f 20/10/4 38/11/4 9/12/4
f 6/6/5 31/13/5 11/14/5
f 13/15/6 35/16/6 10/17/6
f 3/3/7 32/18/7 12/19/7
f 5/20/8 36/21/8 14/22/8
f 9/12/9 29/23/9 16/24/9
f 14/22/10 37/25/10 17/26/10
f 17/26/11 39/27/11 8/28/11
f 6/6/12 27/5/12 31/13/12
f 9/12/13 38/11/13 29/23/13
f 10/17/14 35/16/14 33/29/14
f 25/30/15 1/31/15 19/32/15 41/33/15
f 42/34/16 20/10/16 22/35/16 45/36/16
f 14/22/17 36/21/17 37/25/17
f 8/28/18 39/27/18 44/37/18
f 40/8/19 18/7/19 11/14/19 46/38/19
f 16/24/20 29/23/20 34/39/20
f 43/40/21 21/41/21 7/42/21 30/43/21
f 47/44/22 23/45/22 16/24/22 34/39/22
f 26/46/23 2/47/23 8/28/23 44/37/23
f 5/20/24 28/48/24 36/21/24
f 27/5/25 4/4/25 1/31/25 25/30/25
f 35/16/26 13/15/26 15/9/26 40/8/26
f 28/48/27 5/20/27 23/45/27 47/44/27
f 30/43/28 7/42/28 2/47/28 26/46/28
f 45/36/29 22/35/29 12/19/29 32/18/29
f 17/26/30 37/25/30 39/27/30
f 20/10/31 42/34/31 38/11/31
f 48/2/32 24/1/32 21/41/32 43/40/32
f 11/14/33 31/13/33 46/38/33
f 3/3/34 48/2/34 32/18/34
f 41/33/35 19/32/35 10/17/35 33/29/35
f 38/11/36 42/34/36 45/36/36 32/18/36 48/2/36 43/40/36 30/43/36 26/46/36 44/37/36 39/27/36 37/25/36 36/21/36 28/48/36 47/44/36 34/39/36 29/23/36
f 27/5/36 25/30/36 41/33/36 33/29/36 35/16/36 40/8/36 46/38/36 31/13/36
