# Blender v2.91.2 OBJ File: 'Seaway.blend11'
# www.blender.org
v 2.743066 2.797866 -0.382254
v 2.871404 2.794569 -6.336295
v -0.060221 2.828890 -3.600510
v -0.232539 2.828890 4.200105
v 3.289733 2.797866 -5.749232
v 3.649825 2.797866 -3.260564
v 3.191450 2.797866 -1.146652
v 2.092568 2.808810 -0.179469
v -0.867544 2.828890 0.931237
v 3.723456 2.797866 -5.569780
v 3.536117 2.797866 -1.776198
v -5.057109 2.828890 3.163443
v -0.313406 2.828890 -6.047557
v -5.226465 2.828890 2.320944
v -2.961283 2.828890 4.856110
v 1.836159 2.828890 5.468955
v -3.466868 2.828890 -1.802852
v -0.388379 2.828890 -4.433161
v 0.955918 2.828890 4.931917
v -1.428992 2.828890 -4.559670
v 1.043346 2.828890 0.826313
v 1.726352 -0.836525 3.803746
v -1.452607 -0.836525 -1.042718
v -2.411378 -0.836525 -3.400789
v -1.003080 -0.836525 0.080272
v 3.026072 -0.836525 4.366243
v 1.037293 -0.836525 0.740204
v -0.555118 -0.836525 -6.080774
v -5.056656 -0.836525 3.182905
v -0.220067 -0.836525 4.198509
v -0.071134 -0.836525 -3.572210
v -0.871857 -0.836525 0.934125
v 1.949956 -0.835603 -6.255145
v 0.635531 -0.836525 4.363885
v -3.626120 -0.836525 -3.237289
v 2.959341 -0.836525 5.245624
v 1.763106 2.828890 3.821758
v 3.039019 2.828890 4.380627
v -1.811030 -0.836525 -2.633604
v -1.413122 -0.836525 2.282181
v -4.744462 -0.836525 4.114212
v -0.582088 -0.836525 -2.549545
v 1.266186 -0.836525 2.972059
v -1.846473 -0.836525 -6.027391
v -1.008367 2.828890 0.065544
v -4.305045 -0.836525 2.027767
v -3.963626 -0.836525 4.661612
v -1.824740 -0.836525 -5.195604
v -4.008612 -0.836525 -2.311149
v -2.409049 2.828890 -3.403579
v -2.270111 -0.836525 2.542982
v -1.566071 -0.836525 5.478423
v 0.972234 -0.836525 4.944126
v -2.339170 -0.836525 -1.575264
v -1.366480 -0.836525 -4.534697
v 1.843082 -0.836525 5.472190
v -0.384486 -0.836525 -4.419561
v -3.336343 -0.836525 -1.735270
v -2.964473 -0.836525 4.858293
v -5.239496 -0.836525 2.337971
v -1.447474 2.828890 -1.035432
v -2.337981 2.828890 -1.574834
v 3.716491 -0.867548 -5.557173
v -1.612293 2.828890 5.495901
v -2.212350 2.828890 2.564143
v 2.093972 -0.856605 -0.175285
v 3.192288 -0.867548 -1.196361
v -4.012354 2.828890 -2.344335
v -1.824934 2.828890 -5.196355
v 3.641207 -0.867548 -3.231480
v 3.299742 -0.867548 -5.754863
v -3.966205 2.828890 4.674436
v 0.606208 2.828890 4.353810
v 1.959677 2.829699 -6.258945
v -4.307613 2.828890 2.019204
v -1.844238 2.828890 -6.026747
v 1.279026 2.828890 2.973728
v -0.584756 2.828890 -2.572464
v -4.751967 2.828890 4.105667
v 2.858390 -0.870761 -6.341507
v 2.744150 -0.867548 -0.379930
v 4.142644 -0.867548 -4.412224
v -1.412686 2.828890 2.281705
v 3.537531 -0.867548 -1.790849
v -1.753836 2.828890 -2.658248
v 2.945852 2.828890 5.228007
v -3.625724 2.828890 -3.239077
v 4.153065 2.797866 -4.408222
vt 0.000000 0.000000
vt 0.000000 0.000000
vt 0.000000 0.000000
vt 0.000000 0.000000
vt 0.000000 0.000000
vt 0.000000 0.000000
vt 0.000000 0.000000
vt 0.000000 0.000000
vt 0.000000 0.000000
vt 0.000000 0.000000
vt 0.000000 0.000000
vt 0.000000 0.000000
vt 0.000000 0.000000
vt 0.000000 0.000000
vt 0.000000 0.000000
vt 0.000000 0.000000
vt 0.000000 0.000000
vt 0.000000 0.000000
vt 0.000000 0.000000
vt 0.000000 0.000000
vt 0.000000 0.000000
vt 0.000000 0.000000
vt 0.000000 0.000000
vt 0.000000 0.000000
vt 0.000000 0.000000
vt 0.000000 0.000000
vt 0.000000 0.000000
vt 0.000000 0.000000
vt 0.000000 0.000000
vt 0.000000 0.000000
vt 0.000000 0.000000
vt 0.000000 0.000000
vt 0.000000 0.000000
vt 0.000000 0.000000
vt 0.000000 0.000000
vt 0.000000 0.000000
vt 0.000000 0.000000
vt 0.000000 0.000000
vt 0.000000 0.000000
vt 0.000000 0.000000
vt 0.000000 0.000000
vt 0.000000 0.000000
vt 0.000000 0.000000
vt 0.000000 0.000000
vt 0.000000 0.000000
vt 0.000000 0.000000
vt 0.000000 0.000000
vt 0.000000 0.000000
vt 0.000000 0.000000
vt 0.000000 0.000000
vt 0.000000 0.000000
vt 0.000000 0.000000
vt 0.000000 0.000000
vt 0.000000 0.000000
vt 0.000000 0.000000
vt 0.000000 0.000000
vt 0.000000 0.000000
vt 0.000000 0.000000
vt 0.000000 0.000000
vt 0.000000 0.000000
vt 0.000000 0.000000
vt 0.000000 0.000000
vt 0.000000 0.000000
vt 0.000000 0.000000
vt 0.000000 0.000000
vt 0.000000 0.000000
vt 0.000000 0.000000
vt 0.000000 0.000000
vt 0.000000 0.000000
vt 0.000000 0.000000
vt 0.000000 0.000000
vt 0.000000 0.000000
vt 0.000000 0.000000
vt 0.000000 0.000000
vt 0.000000 0.000000
vt 0.000000 0.000000
vt 0.000000 0.000000
vt 0.000000 0.000000
vt 0.000000 0.000000
vt 0.000000 0.000000
vt 0.000000 0.000000
vt 0.000000 0.000000
vt 0.000000 0.000000
vt 0.000000 0.000000
vt 0.000000 0.000000
vt 0.000000 0.000000
vt 0.000000 0.000000
vt 0.000000 0.000000
vn 0.4286 -0.0039 -0.9035
vn -0.5185 0.0005 0.8551
vn 0.9974 0.0001 0.0718
vn 0.1989 0.0012 0.9800
vn -0.0896 0.0005 -0.9960
vn -0.3151 -0.0024 -0.9491
vn -0.8946 -0.0008 -0.4469
vn -0.5165 -0.0005 0.8563
vn 0.3823 0.0025 -0.9240
vn 0.9944 -0.0013 -0.1055
vn -0.9997 0.0003 0.0247
vn 0.8711 -0.0040 0.4910
vn 0.8717 -0.0046 -0.4900
vn -0.9789 0.0027 0.2043
vn -0.6761 -0.0023 0.7368
vn -0.1795 0.0058 0.9837
vn -0.9498 0.0002 0.3130
vn -0.1186 0.0042 0.9929
vn -0.1337 -0.0006 -0.9910
vn 0.3992 0.0013 -0.9169
vn -0.8907 -0.0035 -0.4545
vn -0.9276 0.0004 -0.3735
vn 0.6739 -0.0087 0.7388
vn -0.0263 0.0055 -0.9996
vn 0.2122 0.0055 0.9772
vn 0.0706 -0.0070 -0.9975
vn 0.2989 0.0009 0.9543
vn -0.5803 -0.0013 0.8144
vn -0.1851 0.0001 0.9827
vn -0.8603 -0.0038 0.5098
vn 0.2486 -0.0002 -0.9686
vn -0.9212 -0.0023 -0.3891
vn -0.3116 0.0052 -0.9502
vn 0.7694 -0.0086 -0.6387
vn 0.9182 -0.0010 0.3962
vn -0.9286 0.0004 0.3710
vn 0.9375 -0.0026 -0.3478
vn -0.8353 -0.0052 0.5498
vn 0.8698 -0.0030 0.4933
vn -0.9877 0.0002 0.1563
vn -0.3120 -0.0033 -0.9501
vn 0.9971 -0.0017 0.0764
vn -0.5208 -0.0002 0.8537
vn 0.6868 0.0036 0.7268
vn -0.1855 -0.0014 0.9826
vn -0.9342 0.0029 0.3567
vn -0.4168 -0.0043 0.9090
vn -0.0805 0.0068 -0.9967
vn 0.8067 0.0005 -0.5909
vn 0.9957 0.0001 0.0922
vn 0.0036 1.0000 0.0003
s off
f 63/1/1 71/2/1 10/3/1
f 53/4/2 56/5/2 19/6/2
f 84/7/3 70/8/3 11/9/3
f 56/5/4 36/10/4 16/11/4
f 2/12/5 80/13/5 33/14/5 74/15/5
f 46/16/6 60/17/6 75/18/6
f 31/19/7 42/20/7 3/21/7
f 61/22/8 62/23/8 54/24/8 23/25/8
f 71/2/9 5/26/9 10/3/9
f 21/27/10 77/28/10 43/29/10 27/30/10
f 69/31/11 76/32/11 44/33/11 48/34/11
f 11/9/12 7/35/12 67/36/12 84/7/12
f 77/28/13 37/37/13 22/38/13 43/29/13
f 12/39/14 14/40/14 60/17/14 29/41/14
f 17/42/15 68/43/15 49/44/15 58/45/15
f 62/23/16 17/42/16 58/45/16 54/24/16
f 79/46/17 12/39/17 29/41/17 41/47/17
f 18/48/18 20/49/18 55/50/18 57/51/18
f 87/52/19 50/53/19 24/54/19 35/55/19
f 37/37/20 38/56/20 26/57/20 22/38/20
f 42/20/21 78/58/21 3/21/21
f 83/59/22 9/60/22 32/61/22 40/62/22
f 8/63/23 21/27/23 27/30/23 66/64/23
f 76/32/24 13/65/24 28/66/24 44/33/24
f 36/10/25 86/67/25 16/11/25
f 85/68/26 78/58/26 42/20/26 39/69/26
f 1/70/27 8/63/27 66/64/27 81/71/27
f 72/72/28 79/46/28 41/47/28 47/73/28
f 73/74/29 4/75/29 30/76/29 34/77/29
f 19/6/30 73/74/30 34/77/30 53/4/30
f 75/18/31 65/78/31 51/79/31 46/16/31
f 68/43/32 87/52/32 35/55/32 49/44/32
f 65/78/33 83/59/33 40/62/33 51/79/33
f 50/53/34 85/68/34 39/69/34 24/54/34
f 88/80/35 6/81/35 70/8/35 82/82/35
f 45/83/36 61/22/36 23/25/36 25/84/36
f 10/3/37 88/80/37 82/82/37 63/1/37
f 20/49/38 69/31/38 48/34/38 55/50/38
f 7/35/39 1/70/39 81/71/39 67/36/39
f 9/60/40 45/83/40 25/84/40 32/61/40
f 60/17/41 14/40/41 75/18/41
f 70/8/42 6/81/42 11/9/42
f 56/5/43 16/11/43 19/6/43
f 4/75/44 64/85/44 52/86/44 30/76/44
f 15/87/45 72/72/45 47/73/45 59/88/45
f 3/21/46 18/48/46 57/51/46 31/19/46
f 64/85/47 15/87/47 59/88/47 52/86/47
f 13/65/48 74/15/48 33/14/48 28/66/48
f 2/12/49 5/26/49 71/2/49 80/13/49
f 38/56/50 86/67/50 36/10/50 26/57/50
f 6/81/51 88/80/51 10/3/51 5/26/51 2/12/51 74/15/51 13/65/51 76/32/51 69/31/51 20/49/51 18/48/51 3/21/51 78/58/51 85/68/51 50/53/51 87/52/51 68/43/51 17/42/51 62/23/51 61/22/51 45/83/51 9/60/51 83/59/51 65/78/51 75/18/51 14/40/51 12/39/51 79/46/51 72/72/51 15/87/51 64/85/51 4/75/51 73/74/51 19/6/51 16/11/51 86/67/51 38/56/51 37/37/51 77/28/51 21/27/51 8/63/51 1/70/51 7/35/51 11/9/51
